# This file uses centimeters as units for non-parametric coordinates.

mtllib Invencible.mtl
g default
v -1.347841 1.129612 0.070207
v 1.347841 1.129612 0.070207
v -1.535516 2.005753 0.070207
v 1.535516 2.005753 0.070207
v -1.535516 2.005753 -0.070207
v 1.535516 2.005753 -0.070207
v -1.347841 1.129612 -0.070207
v 1.347841 1.129612 -0.070207
v 0.000000 3.628376 0.070207
v 0.000000 3.628376 -0.070207
v 0.000000 2.483931 -0.070207
v 0.000000 2.483931 0.070207
v -1.111218 0.335315 0.056450
v 1.111218 0.335315 0.056450
v -1.272407 0.952145 0.056450
v 1.272407 0.952145 0.056450
v -1.272407 0.952145 -0.056450
v 1.272407 0.952145 -0.056450
v -1.111218 0.335315 -0.056450
v 1.111218 0.335315 -0.056450
v 0.000000 2.256831 0.056450
v 0.000000 2.256831 -0.056450
v 0.000000 1.336628 -0.056450
v 0.000000 1.336628 0.056450
vt 0.329065 0.383130
vt 0.343537 0.383194
vt 0.344424 0.479994
vt 0.329065 0.480299
vt 0.335291 0.725983
vt 0.348564 0.725700
vt 0.355362 0.997683
vt 0.340085 0.998008
vt 0.339587 0.902808
vt 0.351803 0.902547
vt 0.659976 0.379203
vt 0.658991 0.366353
vt 0.722083 0.343758
vt 0.728892 0.351377
vt 0.858270 0.301755
vt 0.855138 0.293531
vt 0.698882 0.675935
vt 0.696577 0.663255
vt 0.770296 0.672702
vt 0.765640 0.681798
vt 0.908026 0.687906
vt 0.907082 0.696656
vt 0.041933 0.320522
vt 0.154705 0.496017
vt 0.128448 0.617971
vt 0.001834 0.409736
vt 0.665753 0.408110
vt 0.543493 0.613837
vt 0.516615 0.494095
vt 0.625525 0.321061
vt 0.801924 0.505297
vt 0.918777 0.490241
vt 0.151022 0.449142
vt 0.009036 0.268802
vt 0.123939 0.283934
vt 0.230694 0.439158
vt 0.192873 0.131378
vt 0.267246 0.161649
vt 0.343222 0.001992
vt 0.343660 0.190840
vt 0.329658 0.190839
vt 0.329350 0.002021
vt 0.517749 0.274696
vt 0.517749 0.383667
vt 0.509867 0.383652
vt 0.509557 0.274733
vt 0.517323 0.483535
vt 0.509781 0.483512
vn 0.000000 0.000000 1.000000
vn -0.000000 0.000000 1.000000
vn -0.000000 0.000000 1.000000
vn 0.000000 0.000000 1.000000
vn -0.726334 0.687342 0.000000
vn 0.000000 1.000000 0.000000
vn 0.000000 1.000000 0.000000
vn -0.726334 0.687342 0.000000
vn 0.000000 0.000000 -1.000000
vn -0.000000 0.000000 -1.000000
vn -0.000000 0.000000 -1.000000
vn 0.000000 0.000000 -1.000000
vn 0.708800 -0.705410 0.000000
vn 0.000000 -1.000000 0.000000
vn 0.000000 -1.000000 0.000000
vn 0.708800 -0.705410 0.000000
vn 0.977818 -0.209454 0.000000
vn 0.977818 -0.209454 0.000000
vn 0.977818 -0.209454 0.000000
vn 0.977818 -0.209454 0.000000
vn -0.977818 -0.209454 0.000000
vn -0.977818 -0.209454 0.000000
vn -0.977818 -0.209454 0.000000
vn -0.977818 -0.209454 0.000000
vn 0.726334 0.687342 0.000000
vn 0.726334 0.687342 0.000000
vn -0.000000 0.000000 -1.000000
vn -0.000000 0.000000 -1.000000
vn -0.708800 -0.705410 0.000000
vn -0.708800 -0.705410 0.000000
vn -0.000000 0.000000 1.000000
vn -0.000000 0.000000 1.000000
vn 0.000000 0.000000 1.000000
vn 0.000000 0.000000 1.000000
vn 0.000000 0.000000 1.000000
vn 0.000000 0.000000 1.000000
vn -0.715907 0.698195 0.000000
vn 0.000000 1.000000 0.000000
vn 0.000000 1.000000 0.000000
vn -0.715907 0.698195 0.000000
vn 0.000000 0.000000 -1.000000
vn 0.000000 0.000000 -1.000000
vn 0.000000 0.000000 -1.000000
vn 0.000000 0.000000 -1.000000
vn 0.669414 -0.742889 0.000000
vn 0.000000 -1.000000 0.000000
vn 0.000000 -1.000000 0.000000
vn 0.669414 -0.742889 0.000000
vn 0.967511 -0.252830 0.000000
vn 0.967511 -0.252830 0.000000
vn 0.967511 -0.252830 0.000000
vn 0.967511 -0.252830 0.000000
vn -0.967511 -0.252830 0.000000
vn -0.967511 -0.252830 0.000000
vn -0.967511 -0.252830 0.000000
vn -0.967511 -0.252830 0.000000
vn 0.715907 0.698195 0.000000
vn 0.715907 0.698195 0.000000
vn 0.000000 0.000000 -1.000000
vn 0.000000 0.000000 -1.000000
vn -0.669414 -0.742889 0.000000
vn -0.669414 -0.742889 0.000000
vn 0.000000 0.000000 1.000000
vn 0.000000 0.000000 1.000000
s 1
g pCube3
usemtl initialShadingGroup
f 1/23/1 12/24/2 9/25/3 3/26/4
s 2
f 3/9/5 9/5/6 10/6/7 5/10/8
s 3
f 5/27/9 10/28/10 11/29/11 7/30/12
s 4
f 7/39/13 11/40/14 12/41/15 1/42/16
s off
f 2/1/17 8/2/18 6/3/19 4/4/20
f 7/7/21 1/8/22 3/9/23 5/10/24
s 2
f 9/5/6 4/4/25 6/3/26 10/6/7
s 3
f 11/29/11 10/28/10 6/3/27 8/2/28
s 4
f 12/41/15 11/40/14 8/2/29 2/1/30
s 1
f 9/25/3 12/24/2 2/1/31 4/4/32
s 5
f 13/18/33 24/31/34 21/32/35 15/19/36
s 6
f 15/19/37 21/21/38 22/22/39 17/20/40
s 7
f 17/33/41 22/34/42 23/35/43 19/36/44
s 8
f 19/43/45 23/44/46 24/45/47 13/46/48
s off
f 14/11/49 20/12/50 18/13/51 16/14/52
f 19/17/53 13/18/54 15/19/55 17/20/56
s 6
f 21/15/38 16/14/57 18/13/58 22/16/39
s 7
f 23/35/43 22/34/42 18/37/59 20/38/60
s 8
f 24/45/47 23/44/46 20/47/61 14/48/62
s 5
f 21/32/35 24/31/34 14/11/63 16/14/64
g default
v -1.347841 1.129612 0.070207
v 1.347841 1.129612 0.070207
v -1.535516 2.005753 0.070207
v 1.535516 2.005753 0.070207
v -1.535516 2.005753 -0.070207
v 1.535516 2.005753 -0.070207
v -1.347841 1.129612 -0.070207
v 1.347841 1.129612 -0.070207
v 0.000000 3.628376 0.070207
v 0.000000 3.628376 -0.070207
v 0.000000 2.483931 -0.070207
v 0.000000 2.483931 0.070207
v -1.111218 0.335315 0.056450
v 1.111218 0.335315 0.056450
v -1.272407 0.952145 0.056450
v 1.272407 0.952145 0.056450
v -1.272407 0.952145 -0.056450
v 1.272407 0.952145 -0.056450
v -1.111218 0.335315 -0.056450
v 1.111218 0.335315 -0.056450
v 0.000000 2.256831 0.056450
v 0.000000 2.256831 -0.056450
v 0.000000 1.336628 -0.056450
v 0.000000 1.336628 0.056450
vt 0.329065 0.383130
vt 0.343537 0.383194
vt 0.344424 0.479994
vt 0.329065 0.480299
vt 0.335291 0.725983
vt 0.348564 0.725700
vt 0.355362 0.997683
vt 0.340085 0.998008
vt 0.339587 0.902808
vt 0.351803 0.902547
vt 0.659976 0.379203
vt 0.658991 0.366353
vt 0.722083 0.343758
vt 0.728892 0.351377
vt 0.858270 0.301755
vt 0.855138 0.293531
vt 0.698882 0.675935
vt 0.696577 0.663255
vt 0.770296 0.672702
vt 0.765640 0.681798
vt 0.908026 0.687906
vt 0.907082 0.696656
vt 0.041933 0.320522
vt 0.154705 0.496017
vt 0.128448 0.617971
vt 0.001834 0.409736
vt 0.665753 0.408110
vt 0.543493 0.613837
vt 0.516615 0.494095
vt 0.625525 0.321061
vt 0.801924 0.505297
vt 0.918777 0.490241
vt 0.151022 0.449142
vt 0.009036 0.268802
vt 0.123939 0.283934
vt 0.230694 0.439158
vt 0.192873 0.131378
vt 0.267246 0.161649
vt 0.343222 0.001992
vt 0.343660 0.190840
vt 0.329658 0.190839
vt 0.329350 0.002021
vt 0.517749 0.274696
vt 0.517749 0.383667
vt 0.509867 0.383652
vt 0.509557 0.274733
vt 0.517323 0.483535
vt 0.509781 0.483512
vn 0.000000 0.000000 1.000000
vn -0.000000 0.000000 1.000000
vn -0.000000 0.000000 1.000000
vn 0.000000 0.000000 1.000000
vn -0.726334 0.687342 0.000000
vn 0.000000 1.000000 0.000000
vn 0.000000 1.000000 0.000000
vn -0.726334 0.687342 0.000000
vn 0.000000 0.000000 -1.000000
vn -0.000000 0.000000 -1.000000
vn -0.000000 0.000000 -1.000000
vn 0.000000 0.000000 -1.000000
vn 0.708800 -0.705410 0.000000
vn 0.000000 -1.000000 0.000000
vn 0.000000 -1.000000 0.000000
vn 0.708800 -0.705410 0.000000
vn 0.977818 -0.209454 0.000000
vn 0.977818 -0.209454 0.000000
vn 0.977818 -0.209454 0.000000
vn 0.977818 -0.209454 0.000000
vn -0.977818 -0.209454 0.000000
vn -0.977818 -0.209454 0.000000
vn -0.977818 -0.209454 0.000000
vn -0.977818 -0.209454 0.000000
vn 0.726334 0.687342 0.000000
vn 0.726334 0.687342 0.000000
vn -0.000000 0.000000 -1.000000
vn -0.000000 0.000000 -1.000000
vn -0.708800 -0.705410 0.000000
vn -0.708800 -0.705410 0.000000
vn -0.000000 0.000000 1.000000
vn -0.000000 0.000000 1.000000
vn 0.000000 0.000000 1.000000
vn 0.000000 0.000000 1.000000
vn 0.000000 0.000000 1.000000
vn 0.000000 0.000000 1.000000
vn -0.715907 0.698195 0.000000
vn 0.000000 1.000000 0.000000
vn 0.000000 1.000000 0.000000
vn -0.715907 0.698195 0.000000
vn 0.000000 0.000000 -1.000000
vn 0.000000 0.000000 -1.000000
vn 0.000000 0.000000 -1.000000
vn 0.000000 0.000000 -1.000000
vn 0.669414 -0.742889 0.000000
vn 0.000000 -1.000000 0.000000
vn 0.000000 -1.000000 0.000000
vn 0.669414 -0.742889 0.000000
vn 0.967511 -0.252830 0.000000
vn 0.967511 -0.252830 0.000000
vn 0.967511 -0.252830 0.000000
vn 0.967511 -0.252830 0.000000
vn -0.967511 -0.252830 0.000000
vn -0.967511 -0.252830 0.000000
vn -0.967511 -0.252830 0.000000
vn -0.967511 -0.252830 0.000000
vn 0.715907 0.698195 0.000000
vn 0.715907 0.698195 0.000000
vn 0.000000 0.000000 -1.000000
vn 0.000000 0.000000 -1.000000
vn -0.669414 -0.742889 0.000000
vn -0.669414 -0.742889 0.000000
vn 0.000000 0.000000 1.000000
vn 0.000000 0.000000 1.000000
s 1
g pCube3
f 25/71/65 36/72/66 33/73/67 27/74/68
s 2
f 27/57/69 33/53/70 34/54/71 29/58/72
s 3
f 29/75/73 34/76/74 35/77/75 31/78/76
s 4
f 31/87/77 35/88/78 36/89/79 25/90/80
s off
f 26/49/81 32/50/82 30/51/83 28/52/84
f 31/55/85 25/56/86 27/57/87 29/58/88
s 2
f 33/53/70 28/52/89 30/51/90 34/54/71
s 3
f 35/77/75 34/76/74 30/51/91 32/50/92
s 4
f 36/89/79 35/88/78 32/50/93 26/49/94
s 1
f 33/73/67 36/72/66 26/49/95 28/52/96
s 5
f 37/66/97 48/79/98 45/80/99 39/67/100
s 6
f 39/67/101 45/69/102 46/70/103 41/68/104
s 7
f 41/81/105 46/82/106 47/83/107 43/84/108
s 8
f 43/91/109 47/92/110 48/93/111 37/94/112
s off
f 38/59/113 44/60/114 42/61/115 40/62/116
f 43/65/117 37/66/118 39/67/119 41/68/120
s 6
f 45/63/102 40/62/121 42/61/122 46/64/103
s 7
f 47/83/107 46/82/106 42/85/123 44/86/124
s 8
f 48/93/111 47/92/110 44/95/125 38/96/126
s 5
f 45/80/99 48/79/98 38/59/127 40/62/128
